<?xml version="1.0" encoding="UTF-8"?>
<svg id="Layer_1" xmlns="http://www.w3.org/2000/svg" version="1.1" viewBox="0 0 442.72 91.23">
  <!-- Generator: Adobe Illustrator 30.2.1, SVG Export Plug-In . SVG Version: 2.1.1 Build 1)  -->
  <defs>
    <style>
      .st0 {
        fill: #1A1A1A;
      }
    </style>
  </defs>
  <path class="st0" d="M425.54,0c-6.3,0-11.4,5.11-11.4,11.4v79.83h17.18c6.3,0,11.4-5.11,11.4-11.4V0h-17.18Z"/>
  <path class="st0" d="M133.23,22.81c.09,0,.16-.02.24-.03,6.05-.28,10.88-5.26,10.88-11.38V0h-57.02v91.23h45.61c5.88,0,10.72-4.46,11.34-10.18,0,0,0,0,0-.01,0-.02,0-.05,0-.07.03-.15.06-.3.06-.48v-12.06h-28.51v-11.4h11.4c6.3,0,11.4-5.11,11.4-11.4v-11.46h-22.81v-11.34h17.39Z"/>
  <path class="st0" d="M232.74,0s-.01,0-.02,0-.01,0-.02,0h-.02s-.04,0-.07,0c-7.48.05-13.7,5.87-14.22,13.22,0,.33,0,.65,0,1.03v26.43L183.18,5.54C179.5,1.76,176.15-.04,170.04,0l-14.29.07v91.16h14.29s.02,0,.04,0c7.59-.04,13.77-6.01,14.15-13.52.07-.22.11-.46.11-.73v-26.56l35.8,35.68c3.08,3.42,7.3,5.14,12.59,5.14,7.87,0,14.25-6.38,14.25-14.25V0h-14.24Z"/>
  <path class="st0" d="M402.67,81.05s0,0,0-.01c0-.02,0-.05,0-.07.03-.15.06-.3.06-.48v-12.06h-28.51v-11.4h11.4c6.3,0,11.4-5.11,11.4-11.4v-11.46h-22.81v-11.34h17.39c.09,0,.16-.02.24-.03,6.05-.28,10.88-5.26,10.88-11.38V0h-57.02v91.23h45.61c5.88,0,10.72-4.46,11.34-10.18Z"/>
  <path class="st0" d="M39.63,68.42l30.67-42.61c2.77-4.43,5.22-7.88,5.56-13.19.04-.4.07-.81.07-1.23C75.93,5.16,70.91.1,64.69,0c-.03,0-.04,0-.07,0H0v11.4c0,6.3,5.11,11.4,11.4,11.4h25.34L5.2,65.28c-.65.86-1.22,1.65-1.75,2.42-2.14,2.49-3.45,5.73-3.45,9.28,0,.04,0,.08,0,.12,0,.04,0,.07,0,.11v14.03h64.52c6.3,0,11.4-5.11,11.4-11.4,0-.05,0-.09,0-.14,0-.02,0-.03,0-.05v-11.21h-36.3Z"/>
  <path class="st0" d="M294.68,68.42l-30.67-42.61c-2.77-4.43-5.22-7.88-5.56-13.19-.04-.4-.07-.81-.07-1.23,0-6.24,5.02-11.31,11.24-11.4C269.65,0,269.67,0,269.7,0h64.62v11.4c0,6.3-5.11,11.4-11.4,11.4h-25.34s32.76,44.12,33.29,44.89c2.14,2.49,3.45,5.73,3.45,9.28,0,.04,0,.08,0,.12,0,.04,0,.07,0,.11v14.03h-64.52c-6.3,0-11.4-5.11-11.4-11.4,0-.05,0-.09,0-.14,0-.02,0-.03,0-.05v-11.21h36.3Z"/>
</svg>