<?xml version="1.0" encoding="UTF-8"?>
<svg id="Layer_1" xmlns="http://www.w3.org/2000/svg" version="1.1" viewBox="0 0 500 500">
  <!-- Generator: Adobe Illustrator 30.2.1, SVG Export Plug-In . SVG Version: 2.1.1 Build 1)  -->
  <defs>
    <style>
      .st0 {
        fill: #ca2026;
      }
    </style>
  </defs>
  <path class="st0" d="M259.14,375l168.07-233.52c15.18-24.28,28.63-43.19,30.48-72.27.24-2.21.37-4.45.37-6.72C458.07,28.28,430.56.53,396.46.04c-.14,0-.23-.04-.37-.04H41.93v62.5c0,34.52,27.98,62.5,62.5,62.5h138.85l-172.87,232.78c-3.56,4.69-6.68,9.03-9.58,13.24-11.75,13.67-18.9,31.42-18.9,50.86,0,.21.03.42.03.63,0,.21-.03.4-.03.61v76.88h353.64c34.52,0,62.5-27.98,62.5-62.5,0-.26-.04-.5-.04-.76,0-.11.04-.18.04-.28v-61.46h-198.93Z"/>
</svg>